# xmcd
#
# Track frame offsets:
#	150
#	13585
#	29804
#	48374
#	65367
#	75379
#	93247
#	115639
#	133780
#	154644
#	166333
#	182105
#	197471
#	217679
#	238418
#	258357
#	279329
#	301486
#	322462
#	338369
#
# Disc length: 4701 seconds
#
# Revision: 0
# Processed by: cddbd v1.5.2PL0 Copyright (c) Steve Scherf et al.
# Submitted via: audiograbber 1.83.01
#
DISCID=0e125b14
DTITLE=Joe Ely - From Lubbock To Laredo
DYEAR=2002
DGENRE=Country
TTITLE0=Treat Me Like A Saturday Night
TTITLE1=She Never Spoke Spanish To Me
TTITLE2=Johnny's Blues
TTITLE3=Honky Tonk Masquerade
TTITLE4=Fingernails
TTITLE5=Boxcars
TTITLE6=West Texas Waltz
TTITLE7=Because Of The Wind
TTITLE8=Down On The Drag
TTITLE9=Musta Notta Gotta Lotta
TTITLE10=Dallas
TTITLE11=Cool Rockin' Loretta
TTITLE12=Slow You Down
TTITLE13=The Road Goes On Forever
TTITLE14=Settle For Love
TTITLE15=Letter To Laredo
TTITLE16=Run Preciosa
TTITLE17=Sister Soak The Beans
TTITLE18=Nacho Mama
TTITLE19=If I Could Teach My Chihuahua To Sing
EXTD=
EXTT0=
EXTT1=
EXTT2=
EXTT3=
EXTT4=
EXTT5=
EXTT6=
EXTT7=
EXTT8=
EXTT9=
EXTT10=
EXTT11=
EXTT12=
EXTT13=
EXTT14=
EXTT15=
EXTT16=
EXTT17=
EXTT18=
EXTT19=
PLAYORDER=
